<mxfile host="app.diagrams.net" modified="2024-06-07T17:54:32.604Z" agent="Mozilla/5.0 (Windows NT 10.0; Win64; x64) AppleWebKit/537.36 (KHTML, like Gecko) Chrome/125.0.0.0 Safari/537.36" version="24.5.2" etag="SnIX7B2Sfucfy2_Ah1Mq" type="github">
  <diagram name="第 1 页" id="mEHIzhApxOrvH-9nmfJp">
    <mxGraphModel>
      <root>
        <mxCell id="0" />
        <mxCell id="1" parent="0" />
      </root>
    </mxGraphModel>
  </diagram>
</mxfile>
